<mxfile host="Electron" modified="2024-07-24T17:59:55.859Z" agent="Mozilla/5.0 (X11; Linux x86_64) AppleWebKit/537.36 (KHTML, like Gecko) draw.io/24.6.4 Chrome/124.0.6367.207 Electron/30.0.6 Safari/537.36" etag="ojr6gwZ4r24RPP9Zxvgy" version="24.6.4" type="device">
  <diagram name="Страница — 1" id="-KHIqJZ5oV4_8boizA0u">
    <mxGraphModel dx="819" dy="477" grid="1" gridSize="1" guides="1" tooltips="1" connect="1" arrows="1" fold="1" page="1" pageScale="1" pageWidth="827" pageHeight="1169" math="0" shadow="0">
      <root>
        <mxCell id="0" />
        <mxCell id="1" parent="0" />
        <mxCell id="Q_kLdfxV3CBxwQRRxrjn-28" value="" style="rounded=1;whiteSpace=wrap;html=1;fillColor=#dae8fc;strokeColor=#6c8ebf;" parent="1" vertex="1">
          <mxGeometry x="136" y="282" width="100" height="109" as="geometry" />
        </mxCell>
        <mxCell id="50Zz_F0eRlS5taxhhl1Z-4" style="edgeStyle=orthogonalEdgeStyle;rounded=0;orthogonalLoop=1;jettySize=auto;html=1;exitX=1;exitY=0.5;exitDx=0;exitDy=0;entryX=0.75;entryY=1;entryDx=0;entryDy=0;" edge="1" parent="1" source="Q_kLdfxV3CBxwQRRxrjn-2" target="50Zz_F0eRlS5taxhhl1Z-1">
          <mxGeometry relative="1" as="geometry" />
        </mxCell>
        <mxCell id="Q_kLdfxV3CBxwQRRxrjn-2" value="IP/UDP" style="rounded=1;whiteSpace=wrap;html=1;fontFamily=Times New Roman;fontSize=14;fillColor=#b1ddf0;strokeColor=#10739e;" parent="1" vertex="1">
          <mxGeometry x="399" y="234" width="80" height="40" as="geometry" />
        </mxCell>
        <mxCell id="50Zz_F0eRlS5taxhhl1Z-5" style="edgeStyle=orthogonalEdgeStyle;rounded=0;orthogonalLoop=1;jettySize=auto;html=1;exitX=1;exitY=0.5;exitDx=0;exitDy=0;entryX=0.75;entryY=1;entryDx=0;entryDy=0;" edge="1" parent="1" source="Q_kLdfxV3CBxwQRRxrjn-3" target="50Zz_F0eRlS5taxhhl1Z-1">
          <mxGeometry relative="1" as="geometry" />
        </mxCell>
        <mxCell id="Q_kLdfxV3CBxwQRRxrjn-3" value="queue" style="rounded=1;whiteSpace=wrap;html=1;fontFamily=Times New Roman;fontSize=14;fillColor=#fad7ac;strokeColor=#b46504;" parent="1" vertex="1">
          <mxGeometry x="399" y="301" width="80" height="40" as="geometry" />
        </mxCell>
        <mxCell id="50Zz_F0eRlS5taxhhl1Z-3" style="edgeStyle=orthogonalEdgeStyle;rounded=0;orthogonalLoop=1;jettySize=auto;html=1;exitX=1;exitY=0.5;exitDx=0;exitDy=0;entryX=0.25;entryY=1;entryDx=0;entryDy=0;" edge="1" parent="1" source="Q_kLdfxV3CBxwQRRxrjn-4" target="50Zz_F0eRlS5taxhhl1Z-1">
          <mxGeometry relative="1" as="geometry" />
        </mxCell>
        <mxCell id="Q_kLdfxV3CBxwQRRxrjn-4" value="ARP" style="rounded=1;whiteSpace=wrap;html=1;fontFamily=Times New Roman;fontSize=14;fillColor=#b1ddf0;strokeColor=#10739e;" parent="1" vertex="1">
          <mxGeometry x="413" y="153" width="80" height="40" as="geometry" />
        </mxCell>
        <mxCell id="Q_kLdfxV3CBxwQRRxrjn-5" value="MAC" style="rounded=1;whiteSpace=wrap;html=1;fontFamily=Times New Roman;fontSize=14;fillColor=#b1ddf0;strokeColor=#10739e;" parent="1" vertex="1">
          <mxGeometry x="625" y="209" width="80" height="40" as="geometry" />
        </mxCell>
        <mxCell id="Q_kLdfxV3CBxwQRRxrjn-39" style="edgeStyle=orthogonalEdgeStyle;rounded=0;orthogonalLoop=1;jettySize=auto;html=1;exitX=1;exitY=0.5;exitDx=0;exitDy=0;" parent="1" source="Q_kLdfxV3CBxwQRRxrjn-5" edge="1">
          <mxGeometry relative="1" as="geometry">
            <mxPoint x="739" y="229" as="targetPoint" />
            <mxPoint x="691" y="229" as="sourcePoint" />
          </mxGeometry>
        </mxCell>
        <mxCell id="Q_kLdfxV3CBxwQRRxrjn-13" style="edgeStyle=orthogonalEdgeStyle;rounded=0;orthogonalLoop=1;jettySize=auto;html=1;exitX=0.5;exitY=0;exitDx=0;exitDy=0;entryX=0;entryY=0.25;entryDx=0;entryDy=0;" parent="1" source="Q_kLdfxV3CBxwQRRxrjn-12" target="Q_kLdfxV3CBxwQRRxrjn-2" edge="1">
          <mxGeometry relative="1" as="geometry">
            <Array as="points">
              <mxPoint x="338" y="254" />
              <mxPoint x="338" y="244" />
            </Array>
          </mxGeometry>
        </mxCell>
        <mxCell id="Q_kLdfxV3CBxwQRRxrjn-14" style="edgeStyle=orthogonalEdgeStyle;rounded=0;orthogonalLoop=1;jettySize=auto;html=1;exitX=0.5;exitY=0;exitDx=0;exitDy=0;entryX=0;entryY=0.75;entryDx=0;entryDy=0;" parent="1" source="Q_kLdfxV3CBxwQRRxrjn-12" target="Q_kLdfxV3CBxwQRRxrjn-2" edge="1">
          <mxGeometry relative="1" as="geometry">
            <Array as="points">
              <mxPoint x="338" y="254" />
              <mxPoint x="338" y="264" />
            </Array>
          </mxGeometry>
        </mxCell>
        <mxCell id="3k57j0tdSBSnnfYvdYgx-1" style="edgeStyle=orthogonalEdgeStyle;rounded=0;orthogonalLoop=1;jettySize=auto;html=1;exitX=0.5;exitY=0;exitDx=0;exitDy=0;entryX=0;entryY=0.5;entryDx=0;entryDy=0;" parent="1" source="Q_kLdfxV3CBxwQRRxrjn-12" target="Q_kLdfxV3CBxwQRRxrjn-3" edge="1">
          <mxGeometry relative="1" as="geometry">
            <Array as="points">
              <mxPoint x="338" y="254" />
              <mxPoint x="338" y="321" />
            </Array>
          </mxGeometry>
        </mxCell>
        <mxCell id="Q_kLdfxV3CBxwQRRxrjn-12" value="MUX" style="shape=trapezoid;perimeter=trapezoidPerimeter;whiteSpace=wrap;html=1;fixedSize=1;rotation=90;fillColor=#b0e3e6;strokeColor=#0e8088;" parent="1" vertex="1">
          <mxGeometry x="243" y="234" width="100" height="40" as="geometry" />
        </mxCell>
        <mxCell id="Q_kLdfxV3CBxwQRRxrjn-16" value="IP" style="text;html=1;align=center;verticalAlign=middle;resizable=0;points=[];autosize=1;strokeColor=none;fillColor=none;fontFamily=Times New Roman;fontSize=14;" parent="1" vertex="1">
          <mxGeometry x="331.5" y="224" width="31" height="30" as="geometry" />
        </mxCell>
        <mxCell id="Q_kLdfxV3CBxwQRRxrjn-17" value="Port" style="text;html=1;align=center;verticalAlign=middle;resizable=0;points=[];autosize=1;strokeColor=none;fillColor=none;fontFamily=Times New Roman;fontSize=14;" parent="1" vertex="1">
          <mxGeometry x="332" y="244" width="42" height="30" as="geometry" />
        </mxCell>
        <mxCell id="Q_kLdfxV3CBxwQRRxrjn-18" value="MAC" style="text;html=1;align=center;verticalAlign=middle;resizable=0;points=[];autosize=1;strokeColor=none;fillColor=none;fontFamily=Times New Roman;fontSize=14;" parent="1" vertex="1">
          <mxGeometry x="331.5" y="284" width="51" height="30" as="geometry" />
        </mxCell>
        <mxCell id="Q_kLdfxV3CBxwQRRxrjn-22" style="edgeStyle=orthogonalEdgeStyle;rounded=0;orthogonalLoop=1;jettySize=auto;html=1;exitX=1;exitY=0.5;exitDx=0;exitDy=0;entryX=0.25;entryY=1;entryDx=0;entryDy=0;" parent="1" source="Q_kLdfxV3CBxwQRRxrjn-19" target="Q_kLdfxV3CBxwQRRxrjn-12" edge="1">
          <mxGeometry relative="1" as="geometry" />
        </mxCell>
        <mxCell id="Q_kLdfxV3CBxwQRRxrjn-19" value="search&lt;br&gt;device" style="rounded=1;whiteSpace=wrap;html=1;fontFamily=Times New Roman;fontSize=14;fillColor=#b1ddf0;strokeColor=#10739e;" parent="1" vertex="1">
          <mxGeometry x="148" y="181" width="80" height="40" as="geometry" />
        </mxCell>
        <mxCell id="Q_kLdfxV3CBxwQRRxrjn-23" style="edgeStyle=orthogonalEdgeStyle;rounded=0;orthogonalLoop=1;jettySize=auto;html=1;exitX=1;exitY=0.5;exitDx=0;exitDy=0;entryX=0.5;entryY=1;entryDx=0;entryDy=0;" parent="1" source="Q_kLdfxV3CBxwQRRxrjn-20" target="Q_kLdfxV3CBxwQRRxrjn-12" edge="1">
          <mxGeometry relative="1" as="geometry" />
        </mxCell>
        <mxCell id="Q_kLdfxV3CBxwQRRxrjn-33" style="edgeStyle=orthogonalEdgeStyle;rounded=0;orthogonalLoop=1;jettySize=auto;html=1;exitX=0;exitY=0.75;exitDx=0;exitDy=0;" parent="1" source="Q_kLdfxV3CBxwQRRxrjn-20" edge="1">
          <mxGeometry relative="1" as="geometry">
            <mxPoint x="101" y="263.88888888888886" as="targetPoint" />
          </mxGeometry>
        </mxCell>
        <mxCell id="Q_kLdfxV3CBxwQRRxrjn-20" value="AXI2UDP" style="rounded=1;whiteSpace=wrap;html=1;fontFamily=Times New Roman;fontSize=14;fillColor=#b1ddf0;strokeColor=#10739e;" parent="1" vertex="1">
          <mxGeometry x="148" y="234" width="80" height="40" as="geometry" />
        </mxCell>
        <mxCell id="Q_kLdfxV3CBxwQRRxrjn-24" style="edgeStyle=orthogonalEdgeStyle;rounded=0;orthogonalLoop=1;jettySize=auto;html=1;exitX=1;exitY=0.5;exitDx=0;exitDy=0;entryX=0.75;entryY=1;entryDx=0;entryDy=0;" parent="1" source="Q_kLdfxV3CBxwQRRxrjn-21" target="Q_kLdfxV3CBxwQRRxrjn-12" edge="1">
          <mxGeometry relative="1" as="geometry" />
        </mxCell>
        <mxCell id="Q_kLdfxV3CBxwQRRxrjn-21" value="user data&lt;br style=&quot;border-color: var(--border-color);&quot;&gt;packer" style="rounded=1;whiteSpace=wrap;html=1;fontFamily=Times New Roman;fontSize=14;fillColor=#b1ddf0;strokeColor=#10739e;" parent="1" vertex="1">
          <mxGeometry x="148" y="287" width="80" height="40" as="geometry" />
        </mxCell>
        <mxCell id="Q_kLdfxV3CBxwQRRxrjn-26" style="edgeStyle=orthogonalEdgeStyle;rounded=0;orthogonalLoop=1;jettySize=auto;html=1;exitX=0.5;exitY=0;exitDx=0;exitDy=0;endArrow=none;endFill=0;startArrow=classic;startFill=1;" parent="1" source="Q_kLdfxV3CBxwQRRxrjn-25" edge="1">
          <mxGeometry relative="1" as="geometry">
            <mxPoint x="317" y="54" as="targetPoint" />
          </mxGeometry>
        </mxCell>
        <mxCell id="Q_kLdfxV3CBxwQRRxrjn-30" style="edgeStyle=orthogonalEdgeStyle;rounded=0;orthogonalLoop=1;jettySize=auto;html=1;exitX=0.75;exitY=1;exitDx=0;exitDy=0;entryX=0;entryY=0.5;entryDx=0;entryDy=0;" parent="1" source="Q_kLdfxV3CBxwQRRxrjn-25" target="Q_kLdfxV3CBxwQRRxrjn-4" edge="1">
          <mxGeometry relative="1" as="geometry" />
        </mxCell>
        <mxCell id="Q_kLdfxV3CBxwQRRxrjn-31" style="edgeStyle=orthogonalEdgeStyle;rounded=0;orthogonalLoop=1;jettySize=auto;html=1;entryX=0;entryY=0.25;entryDx=0;entryDy=0;exitX=0.25;exitY=1;exitDx=0;exitDy=0;" parent="1" source="Q_kLdfxV3CBxwQRRxrjn-25" target="Q_kLdfxV3CBxwQRRxrjn-20" edge="1">
          <mxGeometry relative="1" as="geometry">
            <mxPoint x="274" y="144" as="sourcePoint" />
            <mxPoint x="131" y="240" as="targetPoint" />
            <Array as="points">
              <mxPoint x="277" y="140" />
              <mxPoint x="111" y="140" />
              <mxPoint x="111" y="244" />
            </Array>
          </mxGeometry>
        </mxCell>
        <mxCell id="Q_kLdfxV3CBxwQRRxrjn-32" style="edgeStyle=orthogonalEdgeStyle;rounded=0;orthogonalLoop=1;jettySize=auto;html=1;exitX=0.5;exitY=1;exitDx=0;exitDy=0;entryX=0;entryY=0.5;entryDx=0;entryDy=0;" parent="1" source="Q_kLdfxV3CBxwQRRxrjn-25" target="Q_kLdfxV3CBxwQRRxrjn-19" edge="1">
          <mxGeometry relative="1" as="geometry">
            <Array as="points">
              <mxPoint x="317" y="159" />
              <mxPoint x="128" y="159" />
              <mxPoint x="128" y="201" />
            </Array>
          </mxGeometry>
        </mxCell>
        <mxCell id="Q_kLdfxV3CBxwQRRxrjn-25" value="Splitter" style="rounded=1;whiteSpace=wrap;html=1;fontFamily=Times New Roman;fontSize=14;fillColor=#b1ddf0;strokeColor=#10739e;" parent="1" vertex="1">
          <mxGeometry x="237" y="87" width="160" height="40" as="geometry" />
        </mxCell>
        <mxCell id="Q_kLdfxV3CBxwQRRxrjn-29" style="edgeStyle=orthogonalEdgeStyle;rounded=0;orthogonalLoop=1;jettySize=auto;html=1;exitX=0.5;exitY=0;exitDx=0;exitDy=0;entryX=0.5;entryY=1;entryDx=0;entryDy=0;" parent="1" source="Q_kLdfxV3CBxwQRRxrjn-27" target="Q_kLdfxV3CBxwQRRxrjn-21" edge="1">
          <mxGeometry relative="1" as="geometry" />
        </mxCell>
        <mxCell id="Q_kLdfxV3CBxwQRRxrjn-27" value="channel&lt;br&gt;list" style="rounded=1;whiteSpace=wrap;html=1;fontFamily=Times New Roman;fontSize=14;fillColor=#b1ddf0;strokeColor=#10739e;" parent="1" vertex="1">
          <mxGeometry x="148" y="343" width="80" height="40" as="geometry" />
        </mxCell>
        <mxCell id="Q_kLdfxV3CBxwQRRxrjn-34" value="AXI4" style="text;html=1;align=center;verticalAlign=middle;resizable=0;points=[];autosize=1;strokeColor=none;fillColor=none;fontFamily=Times New Roman;fontSize=14;rotation=-90;" parent="1" vertex="1">
          <mxGeometry x="68" y="249" width="51" height="30" as="geometry" />
        </mxCell>
        <mxCell id="Q_kLdfxV3CBxwQRRxrjn-35" value="" style="endArrow=classic;html=1;rounded=0;entryX=0;entryY=0.5;entryDx=0;entryDy=0;" parent="1" target="Q_kLdfxV3CBxwQRRxrjn-21" edge="1">
          <mxGeometry width="50" height="50" relative="1" as="geometry">
            <mxPoint x="87" y="306.93" as="sourcePoint" />
            <mxPoint x="134" y="306.93" as="targetPoint" />
          </mxGeometry>
        </mxCell>
        <mxCell id="Q_kLdfxV3CBxwQRRxrjn-36" value="user stream&lt;br&gt;(AXIS)" style="text;html=1;align=center;verticalAlign=middle;resizable=0;points=[];autosize=1;strokeColor=none;fillColor=none;fontFamily=Times New Roman;fontSize=14;rotation=-90;" parent="1" vertex="1">
          <mxGeometry x="28" y="284" width="83" height="47" as="geometry" />
        </mxCell>
        <mxCell id="Q_kLdfxV3CBxwQRRxrjn-37" value="from ETH (AXIS)" style="text;html=1;align=center;verticalAlign=middle;resizable=0;points=[];autosize=1;strokeColor=none;fillColor=none;fontFamily=Times New Roman;fontSize=14;" parent="1" vertex="1">
          <mxGeometry x="259" y="29" width="122" height="30" as="geometry" />
        </mxCell>
        <mxCell id="Q_kLdfxV3CBxwQRRxrjn-38" value="for ETH (AXIS)" style="text;html=1;align=center;verticalAlign=middle;resizable=0;points=[];autosize=1;strokeColor=none;fillColor=none;fontFamily=Times New Roman;fontSize=14;rotation=-90;" parent="1" vertex="1">
          <mxGeometry x="691" y="214" width="112" height="30" as="geometry" />
        </mxCell>
        <mxCell id="Q_kLdfxV3CBxwQRRxrjn-42" style="edgeStyle=orthogonalEdgeStyle;rounded=0;orthogonalLoop=1;jettySize=auto;html=1;exitX=0.5;exitY=0;exitDx=0;exitDy=0;endArrow=none;endFill=0;startArrow=classic;startFill=1;" parent="1" source="Q_kLdfxV3CBxwQRRxrjn-40" edge="1">
          <mxGeometry relative="1" as="geometry">
            <mxPoint x="532" y="54" as="targetPoint" />
          </mxGeometry>
        </mxCell>
        <mxCell id="Q_kLdfxV3CBxwQRRxrjn-40" value="AXI2REG" style="rounded=1;whiteSpace=wrap;html=1;fontFamily=Times New Roman;fontSize=14;fillColor=#b1ddf0;strokeColor=#10739e;" parent="1" vertex="1">
          <mxGeometry x="492" y="87" width="80" height="40" as="geometry" />
        </mxCell>
        <mxCell id="Q_kLdfxV3CBxwQRRxrjn-43" value="AXILite" style="text;html=1;align=center;verticalAlign=middle;resizable=0;points=[];autosize=1;strokeColor=none;fillColor=none;fontFamily=Times New Roman;fontSize=14;" parent="1" vertex="1">
          <mxGeometry x="502" y="29" width="66" height="30" as="geometry" />
        </mxCell>
        <mxCell id="50Zz_F0eRlS5taxhhl1Z-2" style="edgeStyle=orthogonalEdgeStyle;rounded=0;orthogonalLoop=1;jettySize=auto;html=1;exitX=0.5;exitY=0;exitDx=0;exitDy=0;entryX=0;entryY=0.5;entryDx=0;entryDy=0;" edge="1" parent="1" source="50Zz_F0eRlS5taxhhl1Z-1" target="Q_kLdfxV3CBxwQRRxrjn-5">
          <mxGeometry relative="1" as="geometry" />
        </mxCell>
        <mxCell id="50Zz_F0eRlS5taxhhl1Z-1" value="MUX" style="shape=trapezoid;perimeter=trapezoidPerimeter;whiteSpace=wrap;html=1;fixedSize=1;rotation=90;fillColor=#b0e3e6;strokeColor=#0e8088;" vertex="1" parent="1">
          <mxGeometry x="528" y="209" width="100" height="40" as="geometry" />
        </mxCell>
      </root>
    </mxGraphModel>
  </diagram>
</mxfile>
